<?xml version="1.0" standalone="no"?>
<!DOCTYPE svg PUBLIC "-//W3C//DTD SVG 20010904//EN"
 "http://www.w3.org/TR/2001/REC-SVG-20010904/DTD/svg10.dtd">
<svg version="1.0" xmlns="http://www.w3.org/2000/svg"
 width="700.000000pt" height="700.000000pt" viewBox="0 0 700.000000 700.000000"
 preserveAspectRatio="xMidYMid meet">
<metadata>
Created by potrace 1.11, written by Peter Selinger 2001-2013
</metadata>
<g transform="translate(0.000000,700.000000) scale(0.100000,-0.100000)"
fill="#000000" stroke="none">
<path d="M0 3500 l0 -3500 3500 0 3500 0 0 3500 0 3500 -3500 0 -3500 0 0
-3500z m3745 2990 c726 -66 1372 -365 1875 -870 447 -448 731 -999 840 -1630
11 -63 25 -206 32 -318 86 -1430 -856 -2720 -2247 -3077 -1604 -411 -3237 555
-3650 2160 -336 1309 245 2679 1422 3352 363 208 803 346 1218 382 143 12 382
13 510 1z"/>
</g>
</svg>
